<svg width="37" height="37" viewBox="0 0 37 37" fill="none" xmlns="http://www.w3.org/2000/svg">
<path d="M33.8781 23.2406C34.0304 23.5044 34.1105 23.8035 34.1105 24.1081C34.1104 24.4126 34.0302 24.7118 33.8779 24.9755C33.7255 25.2392 33.5064 25.4581 33.2426 25.6102C32.9788 25.7624 32.6795 25.8424 32.375 25.8422C32.0698 25.8454 31.7693 25.7666 31.5049 25.6141C31.2405 25.4615 31.0219 25.2408 30.8719 24.975L28.516 20.8992C27.1893 21.7295 25.7612 22.3853 24.2668 22.8504L25.0184 27.0996C25.0599 27.3237 25.0565 27.5539 25.0083 27.7767C24.9601 27.9995 24.8682 28.2105 24.7377 28.3974C24.6073 28.5843 24.441 28.7435 24.2485 28.8656C24.056 28.9877 23.8411 29.0703 23.6164 29.1086L23.3129 29.1375C22.9059 29.137 22.5121 28.9934 22.2003 28.7318C21.8885 28.4702 21.6787 28.1073 21.6074 27.7066L20.8703 23.5586C20.0843 23.6593 19.2924 23.7076 18.5 23.7031C17.703 23.6999 16.9068 23.6517 16.1152 23.5586L15.3781 27.7066C15.3069 28.1073 15.0971 28.4702 14.7853 28.7318C14.4735 28.9934 14.0796 29.137 13.6727 29.1375L13.3692 29.1086C13.1444 29.0703 12.9296 28.9877 12.7371 28.8656C12.5446 28.7435 12.3783 28.5843 12.2479 28.3974C12.1174 28.2105 12.0254 27.9995 11.9772 27.7767C11.9291 27.5539 11.9256 27.3237 11.9672 27.0996L12.7188 22.8504C11.229 22.3852 9.80561 21.7294 8.484 20.8992L6.11369 25.0039C5.96026 25.2667 5.74089 25.485 5.47727 25.6371C5.21365 25.7892 4.9149 25.8698 4.61056 25.8711C4.30595 25.8735 4.00633 25.7936 3.74337 25.6398C3.54589 25.526 3.37276 25.3745 3.23391 25.1937C3.09505 25.013 2.99317 24.8066 2.93411 24.5865C2.87505 24.3664 2.85996 24.1367 2.8897 23.9108C2.91944 23.6848 2.99343 23.4669 3.10744 23.2695L5.69455 18.7891C4.81909 18.0113 4.0116 17.1603 3.28087 16.2453C3.12122 16.0709 2.99891 15.8657 2.92145 15.6423C2.844 15.419 2.81303 15.1821 2.83046 14.9463C2.84789 14.7105 2.91335 14.4808 3.02281 14.2712C3.13227 14.0616 3.28342 13.8767 3.46698 13.7276C3.65054 13.5786 3.86263 13.4687 4.09022 13.4047C4.31781 13.3406 4.55609 13.3237 4.79043 13.3551C5.02477 13.3865 5.25022 13.4655 5.45292 13.5872C5.65562 13.7089 5.8313 13.8708 5.96915 14.0629C8.25275 16.8812 12.2707 20.2344 18.5 20.2344C24.7293 20.2344 28.7473 16.8812 31.0309 14.0629C31.1687 13.8708 31.3444 13.7089 31.5471 13.5872C31.7498 13.4655 31.9752 13.3865 32.2096 13.3551C32.4439 13.3237 32.6822 13.3406 32.9098 13.4047C33.1374 13.4687 33.3495 13.5786 33.533 13.7276C33.7166 13.8767 33.8678 14.0616 33.9772 14.2712C34.0867 14.4808 34.1521 14.7105 34.1696 14.9463C34.187 15.1821 34.156 15.419 34.0786 15.6423C34.0011 15.8657 33.8788 16.0709 33.7191 16.2453C32.9851 17.1619 32.1779 18.0174 31.3055 18.8035L33.8781 23.2406Z" fill="black"/>
</svg>
