<svg width="218" height="110" viewBox="0 0 218 110" fill="none" xmlns="http://www.w3.org/2000/svg">
<path d="M215.4 68.8C216.454 70.6248 217.008 72.6948 217.008 74.8019C217.007 76.909 216.452 78.9789 215.398 80.8033C214.344 82.6278 212.828 84.1425 211.003 85.1952C209.177 86.2479 207.107 86.8014 205 86.8C202.888 86.8221 200.809 86.277 198.98 85.2216C197.151 84.1663 195.638 82.6393 194.6 80.8L178.3 52.6C169.121 58.3447 159.239 62.8821 148.9 66.1L154.1 95.5C154.388 97.0507 154.364 98.6432 154.031 100.185C153.697 101.726 153.061 103.186 152.158 104.479C151.256 105.773 150.105 106.874 148.773 107.719C147.441 108.563 145.955 109.135 144.4 109.4L142.3 109.6C139.484 109.597 136.759 108.603 134.602 106.793C132.445 104.983 130.993 102.472 130.5 99.7L125.4 71C119.962 71.697 114.483 72.0311 109 72C103.486 71.9779 97.9768 71.6441 92.5 71L87.4 99.7C86.9073 102.472 85.4552 104.983 83.298 106.793C81.1408 108.603 78.4159 109.597 75.6 109.6L73.5 109.4C71.9453 109.135 70.4588 108.563 69.127 107.719C67.7951 106.874 66.6444 105.773 65.7419 104.479C64.8393 103.186 64.2028 101.726 63.8695 100.185C63.5361 98.6432 63.5125 97.0507 63.8 95.5L69 66.1C58.6924 62.8814 48.8442 58.3438 39.7 52.6L23.3 81C22.2385 82.8186 20.7207 84.3287 18.8967 85.381C17.0728 86.4333 15.0058 86.9913 12.9 87C10.7924 87.0168 8.71941 86.464 6.90003 85.4C5.53363 84.6127 4.33581 83.5638 3.37506 82.3133C2.4143 81.0628 1.70945 79.6351 1.30081 78.112C0.892169 76.5889 0.787748 75.0001 0.993519 73.4366C1.19929 71.8731 1.71122 70.3655 2.50003 69L20.4 38C14.3428 32.6191 8.75587 26.7311 3.70003 20.4C2.59541 19.1934 1.74914 17.7737 1.21323 16.2281C0.677323 14.6826 0.463083 13.0437 0.583678 11.4123C0.704272 9.7809 1.15715 8.19137 1.9145 6.74138C2.67184 5.29139 3.71765 4.01155 4.98769 2.98051C6.25772 1.94946 7.72515 1.18897 9.29983 0.745757C10.8745 0.302548 12.5232 0.185981 14.1446 0.403213C15.7659 0.620444 17.3258 1.16689 18.7282 2.00898C20.1307 2.85107 21.3462 3.97102 22.3 5.30002C38.1 24.8 65.9 48 109 48C152.1 48 179.9 24.8 195.7 5.30002C196.654 3.97102 197.869 2.85107 199.272 2.00898C200.674 1.16689 202.234 0.620444 203.856 0.403213C205.477 0.185981 207.126 0.302548 208.7 0.745757C210.275 1.18897 211.742 1.94946 213.012 2.98051C214.282 4.01155 215.328 5.29139 216.086 6.74138C216.843 8.19137 217.296 9.7809 217.416 11.4123C217.537 13.0437 217.323 14.6826 216.787 16.2281C216.251 17.7737 215.405 19.1934 214.3 20.4C209.221 26.7417 203.636 32.6611 197.6 38.1L215.4 68.8Z" fill="black"/>
</svg>
