<svg width="73" height="41" viewBox="0 0 73 41" fill="none" xmlns="http://www.w3.org/2000/svg">
<g opacity="0.9" filter="url(#filter0_d_25_80)">
<path d="M21.5 24.375C23.9306 24.375 25.9965 23.5851 27.6979 22.0052C29.3993 20.4253 30.25 18.5069 30.25 16.25C30.25 13.9931 29.3993 12.0747 27.6979 10.4948C25.9965 8.91493 23.9306 8.125 21.5 8.125C19.0694 8.125 17.0035 8.91493 15.3021 10.4948C13.6007 12.0747 12.75 13.9931 12.75 16.25C12.75 18.5069 13.6007 20.4253 15.3021 22.0052C17.0035 23.5851 19.0694 24.375 21.5 24.375ZM21.5 32.5C16.6389 32.5 12.5069 30.9201 9.10417 27.7604C5.70139 24.6007 4 20.7639 4 16.25C4 11.7361 5.70139 7.89931 9.10417 4.73958C12.5069 1.57986 16.6389 0 21.5 0C25.4375 0 28.8772 1.03819 31.8192 3.11458C34.7592 5.19097 36.8125 7.76389 37.9792 10.8333H62.4062L68.1667 16.1823L57.9583 27.0156L50.6667 21.6667L44.8333 27.0833L39 21.6667H37.9792C36.7639 24.9167 34.6493 27.5347 31.6354 29.5208C28.6215 31.5069 25.2431 32.5 21.5 32.5Z" fill="black"/>
<path d="M37.5118 11.011L37.6343 11.3333H37.9792H62.2099L67.4573 16.206L57.8976 26.351L50.9624 21.2635L50.6292 21.0191L50.3264 21.3003L44.8333 26.401L39.3402 21.3003L39.1963 21.1667H39H37.9792H37.6323L37.5108 21.4915C36.3342 24.6381 34.2895 27.173 31.3603 29.1033C28.4312 31.0336 25.1491 32 21.5 32C16.7586 32 12.75 30.4635 9.44439 27.394C6.14018 24.3258 4.5 20.6204 4.5 16.25C4.5 11.8796 6.14018 8.17417 9.44439 5.10598C12.75 2.03646 16.7586 0.5 21.5 0.5C25.3444 0.5 28.6812 1.51182 31.5308 3.52309C34.3977 5.54781 36.3839 8.0435 37.5118 11.011ZM21.5 24.875C24.0503 24.875 26.2396 24.0417 28.0381 22.3716C29.8381 20.7002 30.75 18.6504 30.75 16.25C30.75 13.8496 29.8381 11.7998 28.0381 10.1284C26.2396 8.45833 24.0503 7.625 21.5 7.625C18.9497 7.625 16.7604 8.45833 14.9619 10.1284C13.1619 11.7998 12.25 13.8496 12.25 16.25C12.25 18.6504 13.1619 20.7002 14.9619 22.3716C16.7604 24.0417 18.9497 24.875 21.5 24.875Z" stroke="black"/>
</g>
<defs>
<filter id="filter0_d_25_80" x="0" y="0" width="72.1667" height="40.5" filterUnits="userSpaceOnUse" color-interpolation-filters="sRGB">
<feFlood flood-opacity="0" result="BackgroundImageFix"/>
<feColorMatrix in="SourceAlpha" type="matrix" values="0 0 0 0 0 0 0 0 0 0 0 0 0 0 0 0 0 0 127 0" result="hardAlpha"/>
<feOffset dy="4"/>
<feGaussianBlur stdDeviation="2"/>
<feComposite in2="hardAlpha" operator="out"/>
<feColorMatrix type="matrix" values="0 0 0 0 0 0 0 0 0 0 0 0 0 0 0 0 0 0 0.25 0"/>
<feBlend mode="normal" in2="BackgroundImageFix" result="effect1_dropShadow_25_80"/>
<feBlend mode="normal" in="SourceGraphic" in2="effect1_dropShadow_25_80" result="shape"/>
</filter>
</defs>
</svg>
